<svg width="400" height="400" viewBox="0 0 400 400" fill="none" xmlns="http://www.w3.org/2000/svg">
<rect width="400" height="400" rx="200" fill="#011829"/>
<g filter="url(#filter0_f_137_344)">
<circle cx="200" cy="200" r="80" fill="#A0D9FF"/>
</g>
<circle cx="200" cy="200" r="80" fill="#A0D9FF"/>
<path d="M200 360C242.435 360 283.131 343.143 313.137 313.137C343.143 283.131 360 242.435 360 200C360 157.565 343.143 116.869 313.137 86.8629C283.131 56.8571 242.435 40 200 40L200 103.95C225.474 103.95 249.905 114.069 267.918 132.082C285.931 150.095 296.051 174.526 296.05 200C296.05 225.474 285.931 249.905 267.918 267.918C249.905 285.931 225.474 296.051 200 296.05L200 360Z" fill="white"/>
<defs>
<filter id="filter0_f_137_344" x="95" y="95" width="210" height="210" filterUnits="userSpaceOnUse" color-interpolation-filters="sRGB">
<feFlood flood-opacity="0" result="BackgroundImageFix"/>
<feBlend mode="normal" in="SourceGraphic" in2="BackgroundImageFix" result="shape"/>
<feGaussianBlur stdDeviation="12.5" result="effect1_foregroundBlur_137_344"/>
</filter>
</defs>
</svg>
