<svg width="1889" height="400" viewBox="0 0 1889 400" fill="none" xmlns="http://www.w3.org/2000/svg">
<g clip-path="url(#clip0_112_309)">
<path fill-rule="evenodd" clip-rule="evenodd" d="M250.404 166.825L250.397 166.842C266.716 187.304 276.467 213.22 276.467 241.408C276.467 270.015 266.423 296.284 249.665 316.884L248.221 318.658L247.839 316.404C247.514 314.487 247.131 312.551 246.687 310.6C238.299 273.749 210.973 242.149 165.997 216.563C135.625 199.333 118.241 178.585 113.676 155.012C110.728 139.769 112.921 124.458 117.156 111.343C121.39 98.2335 127.688 87.2495 133.039 80.6365L133.042 80.6325L150.538 59.239C153.606 55.487 159.349 55.487 162.417 59.239L250.404 166.825ZM278.077 145.451L278.08 145.443L160.811 2.05336C158.572 -0.684454 154.381 -0.684454 152.142 2.05336L34.8722 145.444L34.8754 145.452L34.4939 145.926C12.914 172.704 0 206.735 0 243.779C0 330.056 70.0555 400 156.477 400C242.898 400 312.953 330.056 312.953 243.779C312.953 206.735 300.04 172.704 278.46 145.926L278.077 145.451ZM62.9315 166.363L62.936 166.357L73.425 153.531L73.742 155.899C73.993 157.775 74.2975 159.66 74.6585 161.553C81.4455 197.162 105.69 226.854 146.224 249.85C181.458 269.903 201.972 292.962 207.883 318.252C210.349 328.807 210.789 339.19 209.721 348.27L209.654 348.832L209.146 349.08C193.244 356.849 175.367 361.21 156.473 361.21C90.2035 361.21 36.4786 307.574 36.4786 241.408C36.4786 213.001 46.3826 186.898 62.9315 166.363Z" fill="white"/>
<rect x="152" y="261" width="389" height="139" rx="69.5" fill="white"/>
<path d="M222.366 365V295.909H245.712C251.109 295.909 255.54 296.831 259.004 298.675C262.467 300.497 265.031 303.005 266.695 306.199C268.36 309.392 269.192 313.024 269.192 317.095C269.192 321.166 268.36 324.776 266.695 327.924C265.031 331.073 262.478 333.547 259.037 335.346C255.596 337.123 251.199 338.011 245.847 338.011H226.955V330.455H245.577C249.265 330.455 252.234 329.915 254.483 328.835C256.754 327.756 258.396 326.226 259.408 324.247C260.443 322.246 260.96 319.862 260.96 317.095C260.96 314.329 260.443 311.911 259.408 309.842C258.374 307.773 256.721 306.176 254.449 305.051C252.178 303.904 249.175 303.331 245.442 303.331H230.733V365H222.366ZM254.888 333.963L271.891 365H262.175L245.442 333.963H254.888ZM299.898 366.08C294.905 366.08 290.598 364.978 286.977 362.773C283.378 360.547 280.601 357.443 278.644 353.462C276.71 349.459 275.743 344.804 275.743 339.496C275.743 334.188 276.71 329.51 278.644 325.462C280.601 321.391 283.322 318.22 286.808 315.948C290.317 313.654 294.41 312.507 299.088 312.507C301.787 312.507 304.452 312.957 307.083 313.857C309.715 314.756 312.11 316.218 314.269 318.242C316.428 320.244 318.149 322.898 319.431 326.204C320.713 329.51 321.354 333.581 321.354 338.416V341.79H281.411V334.908H313.257C313.257 331.984 312.672 329.375 311.503 327.081C310.356 324.787 308.714 322.976 306.577 321.65C304.463 320.323 301.967 319.659 299.088 319.659C295.917 319.659 293.173 320.446 290.857 322.021C288.563 323.572 286.797 325.597 285.56 328.093C284.323 330.589 283.705 333.266 283.705 336.122V340.71C283.705 344.624 284.379 347.941 285.729 350.662C287.101 353.361 289.001 355.419 291.43 356.836C293.859 358.23 296.682 358.928 299.898 358.928C301.989 358.928 303.879 358.635 305.565 358.05C307.275 357.443 308.748 356.544 309.985 355.352C311.222 354.137 312.178 352.63 312.852 350.831L320.544 352.99C319.734 355.599 318.374 357.893 316.462 359.872C314.55 361.829 312.189 363.358 309.378 364.46C306.566 365.54 303.406 366.08 299.898 366.08ZM345.388 366.214C342.105 366.214 339.125 365.596 336.448 364.359C333.772 363.1 331.647 361.289 330.072 358.928C328.498 356.544 327.711 353.665 327.711 350.291C327.711 347.322 328.296 344.916 329.465 343.072C330.635 341.205 332.198 339.743 334.154 338.686C336.111 337.629 338.27 336.842 340.632 336.325C343.016 335.785 345.411 335.357 347.817 335.043C350.966 334.638 353.519 334.334 355.475 334.132C357.455 333.907 358.894 333.536 359.794 333.018C360.716 332.501 361.177 331.602 361.177 330.32V330.05C361.177 326.721 360.266 324.135 358.444 322.29C356.645 320.446 353.912 319.524 350.246 319.524C346.445 319.524 343.466 320.356 341.306 322.021C339.147 323.685 337.629 325.462 336.752 327.351L329.195 324.652C330.545 321.503 332.344 319.052 334.593 317.298C336.865 315.521 339.338 314.284 342.015 313.587C344.714 312.867 347.368 312.507 349.977 312.507C351.641 312.507 353.553 312.71 355.712 313.114C357.893 313.497 359.996 314.295 362.02 315.51C364.067 316.724 365.765 318.557 367.114 321.009C368.464 323.46 369.138 326.744 369.138 330.859V365H361.177V357.983H360.772C360.232 359.107 359.333 360.311 358.073 361.593C356.814 362.875 355.138 363.965 353.046 364.865C350.955 365.765 348.402 366.214 345.388 366.214ZM346.603 359.062C349.752 359.062 352.405 358.444 354.565 357.207C356.746 355.97 358.388 354.373 359.49 352.417C360.615 350.46 361.177 348.402 361.177 346.243V338.956C360.839 339.361 360.097 339.732 358.95 340.069C357.826 340.384 356.521 340.665 355.037 340.913C353.575 341.138 352.147 341.34 350.752 341.52C349.381 341.677 348.267 341.812 347.413 341.925C345.343 342.195 343.409 342.633 341.61 343.24C339.833 343.825 338.394 344.714 337.292 345.906C336.212 347.075 335.673 348.672 335.673 350.696C335.673 353.462 336.696 355.554 338.742 356.971C340.812 358.365 343.432 359.062 346.603 359.062ZM401.396 366.08C396.538 366.08 392.355 364.933 388.847 362.638C385.338 360.344 382.639 357.185 380.75 353.159C378.861 349.133 377.916 344.534 377.916 339.361C377.916 334.098 378.883 329.454 380.817 325.428C382.774 321.38 385.495 318.22 388.981 315.948C392.49 313.654 396.583 312.507 401.261 312.507C404.905 312.507 408.188 313.182 411.112 314.531C414.036 315.881 416.431 317.77 418.298 320.199C420.165 322.628 421.323 325.462 421.773 328.7H413.811C413.204 326.339 411.854 324.247 409.763 322.425C407.694 320.581 404.905 319.659 401.396 319.659C398.293 319.659 395.571 320.469 393.232 322.088C390.916 323.685 389.105 325.945 387.801 328.869C386.519 331.77 385.878 335.178 385.878 339.091C385.878 343.094 386.508 346.58 387.767 349.549C389.049 352.518 390.848 354.823 393.165 356.465C395.504 358.107 398.248 358.928 401.396 358.928C403.465 358.928 405.343 358.568 407.03 357.848C408.717 357.128 410.145 356.094 411.315 354.744C412.484 353.395 413.316 351.776 413.811 349.886H421.773C421.323 352.945 420.21 355.7 418.433 358.152C416.679 360.581 414.351 362.515 411.45 363.954C408.571 365.371 405.22 366.08 401.396 366.08ZM438.048 333.828V365H430.087V295.909H438.048V321.278H438.723C439.937 318.602 441.759 316.477 444.188 314.902C446.64 313.306 449.901 312.507 453.971 312.507C457.502 312.507 460.595 313.216 463.249 314.632C465.903 316.027 467.961 318.175 469.422 321.076C470.907 323.955 471.649 327.621 471.649 332.074V365H463.687V332.614C463.687 328.498 462.619 325.315 460.482 323.066C458.368 320.795 455.433 319.659 451.677 319.659C449.069 319.659 446.73 320.21 444.66 321.312C442.614 322.414 440.994 324.022 439.802 326.136C438.633 328.25 438.048 330.814 438.048 333.828Z" fill="#011829"/>
<g clip-path="url(#clip1_112_309)">
<path d="M744.478 140.898C743.063 128.965 737.333 119.702 727.286 113.107C717.237 106.513 704.912 103.216 690.31 103.216C679.633 103.216 670.291 104.943 662.283 108.397C654.354 111.851 648.152 116.601 643.678 122.646C639.281 128.691 637.083 135.56 637.083 143.253C637.083 149.691 638.614 155.225 641.676 159.857C644.816 164.41 648.82 168.218 653.687 171.28C658.554 174.263 663.657 176.736 668.996 178.698C674.334 180.583 679.241 182.113 683.715 183.291L708.209 189.885C714.489 191.534 721.476 193.811 729.17 196.715C736.942 199.62 744.358 203.585 751.428 208.609C758.568 213.555 764.458 219.914 769.088 227.686C773.723 235.458 776.038 244.996 776.038 256.301C776.038 269.333 772.623 281.109 765.793 291.628C759.043 302.148 749.148 310.509 736.118 316.711C723.164 322.913 707.424 326.014 688.897 326.014C671.626 326.014 656.67 323.227 644.031 317.653C631.47 312.079 621.578 304.307 614.356 294.337C607.212 284.366 603.169 272.787 602.227 259.598H632.373C633.158 268.705 636.22 276.241 641.558 282.208C646.975 288.095 653.805 292.492 662.048 295.396C670.369 298.223 679.319 299.636 688.897 299.636C700.044 299.636 710.054 297.83 718.925 294.219C727.796 290.529 734.822 285.426 740.003 278.91C745.183 272.316 747.773 264.622 747.773 255.83C747.773 247.822 745.538 241.306 741.063 236.282C736.589 231.258 730.701 227.175 723.4 224.035C716.099 220.895 708.209 218.147 699.73 215.792L670.055 207.314C651.214 201.897 636.298 194.164 625.307 184.115C614.317 174.067 608.821 160.917 608.821 144.666C608.821 131.163 612.472 119.388 619.773 109.339C627.152 99.2116 637.044 91.3611 649.448 85.7871C661.93 80.1351 675.865 77.3086 691.252 77.3086C706.796 77.3086 720.613 80.0956 732.703 85.6696C744.793 91.1651 754.368 98.7016 761.433 108.279C768.578 117.857 772.348 128.73 772.738 140.898H744.478Z" fill="white"/>
<path d="M914.378 247.822V140.898H942.168V321.774H914.378V291.157H912.493C908.253 300.342 901.658 308.153 892.713 314.59C883.763 320.949 872.458 324.129 858.798 324.129C847.493 324.129 837.443 321.656 828.648 316.71C819.858 311.686 812.948 304.149 807.923 294.101C802.903 283.973 800.388 271.216 800.388 255.829V140.898H828.178V253.945C828.178 267.134 831.868 277.654 839.248 285.504C846.708 293.355 856.208 297.28 867.748 297.28C874.653 297.28 881.683 295.514 888.823 291.981C896.048 288.448 902.093 283.031 906.958 275.73C911.903 268.429 914.378 259.127 914.378 247.822Z" fill="white"/>
<path d="M973.173 321.774V140.898H1000.96V321.774H973.173ZM987.303 110.752C981.888 110.752 977.218 108.907 973.293 105.217C969.443 101.528 967.523 97.0921 967.523 91.9106C967.523 86.7291 969.443 82.2936 973.293 78.6041C977.218 74.9141 981.888 73.0696 987.303 73.0696C992.723 73.0696 997.353 74.9141 1001.2 78.6041C1005.12 82.2936 1007.09 86.7291 1007.09 91.9106C1007.09 97.0921 1005.12 101.528 1001.2 105.217C997.353 108.907 992.723 110.752 987.303 110.752Z" fill="white"/>
<path fill-rule="evenodd" clip-rule="evenodd" d="M742.638 142.973L742.418 141.145C741.078 129.82 735.685 121.102 726.148 114.843C716.504 108.514 704.595 105.291 690.309 105.291C679.855 105.291 670.803 106.982 663.107 110.301C655.465 113.631 649.575 118.167 645.348 123.874C641.221 129.552 639.155 135.99 639.155 143.256C639.155 149.345 640.597 154.462 643.393 158.7C646.363 163.002 650.151 166.609 654.78 169.522C659.524 172.429 664.496 174.838 669.698 176.751C674.989 178.618 679.836 180.13 684.242 181.29L684.253 181.292L708.735 187.883C708.736 187.884 708.738 187.884 708.74 187.885C715.103 189.556 722.157 191.856 729.898 194.778C737.843 197.747 745.413 201.795 752.613 206.915C760.008 212.036 766.093 218.616 770.868 226.628C775.733 234.792 778.108 244.718 778.108 256.304C778.108 269.718 774.588 281.886 767.533 292.754C760.543 303.644 750.333 312.242 737.012 318.583C723.71 324.951 707.646 328.089 688.896 328.089C671.407 328.089 656.154 325.267 643.194 319.552L643.19 319.55C630.334 313.846 620.138 305.855 612.677 295.555L612.671 295.547C605.286 285.242 601.126 273.288 600.159 259.748L600 257.528H634.273L634.437 259.423C635.189 268.143 638.1 275.234 643.092 280.818C648.255 286.426 654.782 290.64 662.725 293.441C670.811 296.185 679.529 297.566 688.896 297.566C699.815 297.566 709.55 295.799 718.133 292.306C726.727 288.731 733.448 283.825 738.378 277.626C743.253 271.417 745.703 264.182 745.703 255.833C745.703 248.231 743.588 242.238 739.513 237.663C735.275 232.903 729.653 228.984 722.58 225.942C715.374 222.843 707.573 220.125 699.175 217.792L699.16 217.788L669.485 209.309L669.482 209.309C650.427 203.83 635.197 195.969 623.908 185.648C612.446 175.168 606.748 161.442 606.748 144.669C606.748 130.769 610.515 118.557 618.095 108.123L618.097 108.121C625.706 97.679 635.892 89.6095 648.595 83.901C661.376 78.114 675.607 75.2395 691.251 75.2395C707.043 75.2395 721.162 78.071 733.565 83.788C745.933 89.4115 755.803 97.1575 763.098 107.048C770.498 116.971 774.403 128.253 774.813 140.835L774.878 142.973H742.638ZM761.433 108.282C754.368 98.7045 744.793 91.168 732.702 85.6725C720.612 80.0985 706.795 77.312 691.251 77.312C675.864 77.312 661.929 80.138 649.447 85.7905C637.043 91.364 627.152 99.215 619.772 109.342C612.471 119.391 608.821 131.166 608.821 144.669C608.821 160.92 614.316 174.069 625.307 184.118C636.298 194.167 651.214 201.899 670.055 207.316L699.73 215.795C708.208 218.15 716.098 220.898 723.399 224.038C730.7 227.178 736.588 231.261 741.063 236.285C745.538 241.31 747.773 247.825 747.773 255.833C747.773 264.625 745.183 272.319 740.003 278.913C734.822 285.429 727.795 290.532 718.924 294.222C710.053 297.833 700.044 299.639 688.896 299.639C679.318 299.639 670.369 298.225 662.047 295.399C653.804 292.495 646.974 288.098 641.557 282.21C636.219 276.244 633.157 268.707 632.372 259.601H602.226C602.276 260.296 602.334 260.987 602.401 261.674C603.603 274.007 607.588 284.895 614.355 294.339C621.578 304.31 631.469 312.082 644.03 317.656C656.669 323.23 671.625 326.016 688.896 326.016C707.423 326.016 723.164 322.915 736.117 316.713C749.148 310.511 759.038 302.151 765.793 291.631C772.623 281.111 776.038 269.336 776.038 256.304C776.038 244.999 773.723 235.461 769.088 227.689C764.458 219.917 758.568 213.557 751.423 208.612C744.358 203.587 736.941 199.623 729.169 196.719C721.476 193.814 714.489 191.537 708.208 189.889L683.715 183.294C679.24 182.117 674.333 180.586 668.995 178.702C663.657 176.739 658.554 174.266 653.686 171.283C648.819 168.221 644.815 164.414 641.675 159.86C638.613 155.229 637.083 149.693 637.083 143.256C637.083 135.562 639.281 128.693 643.677 122.648C648.152 116.603 654.354 111.854 662.283 108.4C670.29 104.946 679.632 103.218 690.309 103.218C704.911 103.218 717.236 106.516 727.285 113.11C737.333 119.705 743.063 128.969 744.478 140.901H772.738C772.718 140.206 772.683 139.515 772.638 138.829C771.903 127.495 768.173 117.312 761.433 108.282ZM912.303 138.829H944.243V323.85H912.303V296.089C907.938 303.882 901.798 310.611 893.918 316.277L893.908 316.283C884.533 322.946 872.778 326.205 858.798 326.205C847.178 326.205 836.773 323.661 827.633 318.52L827.623 318.513C818.433 313.264 811.258 305.404 806.073 295.031L806.068 295.025C800.858 284.528 798.313 271.43 798.313 255.833V138.829H830.253V253.949C830.253 266.732 833.813 276.7 840.753 284.084C847.793 291.491 856.733 295.211 867.743 295.211C874.288 295.211 881.003 293.54 887.903 290.127L887.913 290.123C894.778 286.766 900.553 281.608 905.233 274.584L905.243 274.571C909.898 267.698 912.303 258.832 912.303 247.825V138.829ZM839.248 285.508C831.868 277.658 828.178 267.138 828.178 253.949V140.901H800.388V255.833C800.388 271.22 802.898 283.977 807.923 294.104C812.948 304.153 819.858 311.689 828.648 316.713C837.443 321.659 847.493 324.132 858.798 324.132C872.458 324.132 883.758 320.953 892.708 314.594C901.528 308.251 908.058 300.575 912.303 291.564C912.368 291.43 912.433 291.295 912.493 291.16H914.378V321.777H942.168V140.901H914.378V247.825C914.378 259.13 911.903 268.433 906.958 275.734C902.093 283.035 896.048 288.452 888.823 291.985C881.678 295.517 874.653 297.283 867.743 297.283C856.203 297.283 846.708 293.359 839.248 285.508ZM971.098 323.85V138.829H1003.04V323.85H971.098ZM971.873 106.73L971.858 106.716C967.613 102.648 965.448 97.678 965.448 91.914C965.448 86.15 967.613 81.1795 971.858 77.1115L971.873 77.097C976.183 73.044 981.363 71 987.303 71C993.243 71 998.388 73.043 1002.63 77.105C1006.94 81.1675 1009.16 86.139 1009.16 91.914C1009.16 97.6885 1006.94 102.66 1002.63 106.723C998.388 110.785 993.243 112.827 987.303 112.827C981.363 112.827 976.183 110.784 971.873 106.73ZM1001.2 105.22C1005.12 101.53 1007.09 97.095 1007.09 91.914C1007.09 86.7325 1005.12 82.297 1001.2 78.607C997.353 74.9175 992.723 73.0725 987.303 73.0725C981.888 73.0725 977.218 74.9175 973.288 78.607C969.443 82.297 967.518 86.7325 967.518 91.914C967.518 97.095 969.443 101.53 973.288 105.22C977.218 108.91 981.888 110.755 987.303 110.755C992.723 110.755 997.353 108.91 1001.2 105.22ZM973.173 321.777H1000.96V140.901H973.173V321.777Z" fill="white"/>
<path d="M1048 324.364V72H1133.27C1152.99 72 1169.17 75.3681 1181.82 82.1044C1194.47 88.7585 1203.84 97.9182 1209.92 109.583C1216 121.249 1219.04 134.516 1219.04 149.385C1219.04 164.254 1216 177.439 1209.92 188.94C1203.84 200.441 1194.51 209.478 1181.95 216.05C1169.38 222.54 1153.32 225.784 1133.76 225.784H1064.76V198.182H1132.78C1146.25 198.182 1157.09 196.211 1165.31 192.267C1173.61 188.324 1179.6 182.738 1183.3 175.509C1187.08 168.197 1188.97 159.489 1188.97 149.385C1188.97 139.281 1187.08 130.449 1183.3 122.892C1179.52 115.334 1173.48 109.501 1165.19 105.394C1156.89 101.204 1145.92 99.1093 1132.29 99.1093H1078.56V324.364H1048ZM1166.79 210.998L1228.89 324.364H1193.41L1132.29 210.998H1166.79ZM1313.84 328.307C1295.61 328.307 1279.87 324.282 1266.65 316.231C1253.5 308.098 1243.36 296.762 1236.21 282.221C1229.15 267.599 1225.61 250.594 1225.61 231.206C1225.61 211.819 1229.15 194.732 1236.21 179.945C1243.36 165.076 1253.3 153.492 1266.03 145.195C1278.85 136.816 1293.8 132.626 1310.89 132.626C1320.74 132.626 1330.48 134.269 1340.09 137.555C1349.7 140.841 1358.45 146.181 1366.34 153.575C1374.22 160.886 1380.51 170.58 1385.19 182.656C1389.87 194.732 1392.21 209.601 1392.21 227.263V239.586H1246.32V214.448H1362.64C1362.64 203.768 1360.5 194.239 1356.23 185.86C1352.04 177.48 1346.05 170.867 1338.24 166.02C1330.52 161.173 1321.4 158.75 1310.89 158.75C1299.3 158.75 1289.28 161.625 1280.82 167.376C1272.44 173.044 1265.99 180.438 1261.47 189.556C1256.95 198.675 1254.7 208.451 1254.7 218.884V235.642C1254.7 249.936 1257.16 262.054 1262.09 271.994C1267.1 281.852 1274.04 289.368 1282.91 294.544C1291.79 299.637 1302.1 302.184 1313.84 302.184C1321.48 302.184 1328.38 301.116 1334.55 298.98C1340.79 296.762 1346.17 293.476 1350.69 289.122C1355.21 284.686 1358.7 279.182 1361.16 272.61L1389.26 280.496C1386.3 290.025 1381.33 298.405 1374.35 305.634C1367.36 312.781 1358.74 318.367 1348.47 322.392C1338.2 326.336 1326.66 328.307 1313.84 328.307ZM1462.65 328.8C1450.66 328.8 1439.78 326.541 1430 322.023C1420.22 317.422 1412.46 310.809 1406.71 302.184C1400.96 293.476 1398.08 282.961 1398.08 270.638C1398.08 259.794 1400.22 251.004 1404.49 244.268C1408.76 237.45 1414.47 232.11 1421.62 228.249C1428.77 224.388 1436.65 221.513 1445.28 219.623C1453.99 217.652 1462.74 216.091 1471.53 214.941C1483.03 213.462 1492.35 212.353 1499.5 211.614C1506.73 210.792 1511.98 209.437 1515.27 207.547C1518.64 205.658 1520.32 202.372 1520.32 197.689V196.703C1520.32 184.545 1517 175.098 1510.34 168.362C1503.77 161.625 1493.79 158.257 1480.4 158.257C1466.52 158.257 1455.63 161.297 1447.74 167.376C1439.86 173.455 1434.31 179.945 1431.11 186.846L1403.51 176.988C1408.44 165.486 1415.01 156.532 1423.22 150.124C1431.52 143.634 1440.56 139.116 1450.33 136.57C1460.19 133.941 1469.88 132.626 1479.41 132.626C1485.49 132.626 1492.47 133.366 1500.36 134.844C1508.33 136.241 1516.01 139.157 1523.4 143.593C1530.88 148.029 1537.08 154.725 1542.01 163.679C1546.94 172.634 1549.4 184.627 1549.4 199.661V324.364H1520.32V298.733H1518.84C1516.87 302.841 1513.59 307.236 1508.99 311.918C1504.39 316.601 1498.27 320.585 1490.63 323.871C1482.99 327.157 1473.66 328.8 1462.65 328.8ZM1467.09 302.676C1478.59 302.676 1488.28 300.417 1496.17 295.899C1504.14 291.381 1510.14 285.548 1514.16 278.401C1518.27 271.254 1520.32 263.738 1520.32 255.851V229.235C1519.09 230.713 1516.38 232.069 1512.19 233.301C1508.08 234.451 1503.32 235.478 1497.9 236.382C1492.56 237.203 1487.34 237.943 1482.25 238.6C1477.24 239.175 1473.17 239.668 1470.05 240.078C1462.49 241.064 1455.42 242.666 1448.85 244.884C1442.36 247.02 1437.11 250.265 1433.08 254.619C1429.14 258.891 1427.17 264.723 1427.17 272.117C1427.17 282.221 1430.9 289.861 1438.38 295.037C1445.94 300.13 1455.51 302.676 1467.09 302.676ZM1649.88 328.307C1632.14 328.307 1616.86 324.118 1604.04 315.738C1591.23 307.359 1581.37 295.817 1574.47 281.112C1567.57 266.407 1564.12 249.608 1564.12 230.713C1564.12 211.49 1567.65 194.527 1574.71 179.822C1581.86 165.034 1591.8 153.492 1604.53 145.195C1617.35 136.816 1632.3 132.626 1649.39 132.626C1662.7 132.626 1674.69 135.091 1685.37 140.02C1696.05 144.949 1704.8 151.849 1711.62 160.722C1718.43 169.594 1722.66 179.945 1724.31 191.775H1695.23C1693.01 183.149 1688.08 175.509 1680.44 168.854C1672.88 162.118 1662.7 158.75 1649.88 158.75C1638.54 158.75 1628.6 161.707 1620.06 167.622C1611.6 173.455 1604.99 181.711 1600.22 192.391C1595.54 202.988 1593.2 215.434 1593.2 229.728C1593.2 244.35 1595.5 257.083 1600.1 267.927C1604.78 278.771 1611.35 287.191 1619.81 293.188C1628.36 299.185 1638.38 302.184 1649.88 302.184C1657.44 302.184 1664.3 300.869 1670.46 298.24C1676.62 295.612 1681.84 291.833 1686.11 286.904C1690.38 281.975 1693.42 276.06 1695.23 269.159H1724.31C1722.66 280.332 1718.6 290.395 1712.11 299.349C1705.7 308.222 1697.2 315.286 1686.6 320.544C1676.09 325.719 1663.85 328.307 1649.88 328.307ZM1766.41 210.505V324.364H1737.33V72H1766.41V164.665H1768.87C1773.31 154.889 1779.96 147.126 1788.83 141.375C1797.79 135.543 1809.7 132.626 1824.57 132.626C1837.47 132.626 1848.76 135.214 1858.45 140.39C1868.15 145.483 1875.67 153.328 1881 163.925C1886.43 174.441 1889.14 187.831 1889.14 204.097V324.364H1860.06V206.069C1860.06 191.035 1856.15 179.411 1848.35 171.196C1840.63 162.899 1829.91 158.75 1816.19 158.75C1806.66 158.75 1798.12 160.763 1790.56 164.788C1783.08 168.813 1777.17 174.687 1772.81 182.409C1768.54 190.132 1766.41 199.497 1766.41 210.505Z" fill="white"/>
</g>
</g>
<defs>
<clipPath id="clip0_112_309">
<rect width="1889" height="400" fill="white"/>
</clipPath>
<clipPath id="clip1_112_309">
<rect width="1289" height="257" fill="white" transform="translate(600 71)"/>
</clipPath>
</defs>
</svg>
