<svg width="541" height="400" viewBox="0 0 541 400" fill="none" xmlns="http://www.w3.org/2000/svg">
<g clip-path="url(#clip0_109_301)">
<path fill-rule="evenodd" clip-rule="evenodd" d="M250.404 166.825L250.397 166.842C266.716 187.304 276.467 213.22 276.467 241.408C276.467 270.016 266.423 296.284 249.665 316.884L248.221 318.658L247.839 316.404C247.514 314.487 247.131 312.551 246.687 310.6C238.299 273.749 210.973 242.149 165.997 216.563C135.625 199.333 118.241 178.585 113.676 155.012C110.729 139.769 112.921 124.458 117.156 111.343C121.39 98.2335 127.688 87.2495 133.039 80.6365L133.042 80.6325L150.538 59.239C153.606 55.487 159.349 55.487 162.417 59.239L250.404 166.825ZM278.077 145.451L278.08 145.443L160.811 2.05336C158.572 -0.684454 154.381 -0.684454 152.142 2.05336L34.8722 145.444L34.8754 145.452L34.4939 145.926C12.914 172.704 0 206.735 0 243.779C0 330.056 70.0555 400 156.477 400C242.898 400 312.953 330.056 312.953 243.779C312.953 206.735 300.039 172.704 278.46 145.926L278.077 145.451ZM62.9315 166.363L62.936 166.357L73.425 153.531L73.742 155.899C73.993 157.775 74.2975 159.66 74.6585 161.553C81.4455 197.163 105.69 226.854 146.224 249.85C181.458 269.902 201.972 292.962 207.883 318.252C210.349 328.807 210.788 339.19 209.721 348.27L209.654 348.832L209.146 349.08C193.244 356.849 175.367 361.21 156.473 361.21C90.2035 361.21 36.4786 307.574 36.4786 241.408C36.4786 213.001 46.3826 186.898 62.9315 166.363Z" fill="#011829"/>
<rect x="152" y="261" width="389" height="139" rx="69.5" fill="#011829"/>
<path d="M222.366 365V295.909H245.712C251.109 295.909 255.54 296.831 259.004 298.675C262.467 300.497 265.031 303.005 266.695 306.199C268.36 309.392 269.192 313.024 269.192 317.095C269.192 321.166 268.36 324.776 266.695 327.924C265.031 331.073 262.478 333.547 259.037 335.346C255.596 337.123 251.199 338.011 245.847 338.011H226.955V330.455H245.577C249.265 330.455 252.234 329.915 254.483 328.835C256.754 327.756 258.396 326.226 259.408 324.247C260.443 322.246 260.96 319.862 260.96 317.095C260.96 314.329 260.443 311.911 259.408 309.842C258.374 307.773 256.721 306.176 254.449 305.051C252.178 303.904 249.175 303.331 245.442 303.331H230.733V365H222.366ZM254.888 333.963L271.891 365H262.175L245.442 333.963H254.888ZM299.898 366.08C294.905 366.08 290.598 364.978 286.977 362.773C283.378 360.547 280.601 357.443 278.644 353.462C276.71 349.459 275.743 344.804 275.743 339.496C275.743 334.188 276.71 329.51 278.644 325.462C280.601 321.391 283.322 318.22 286.808 315.948C290.317 313.654 294.41 312.507 299.088 312.507C301.787 312.507 304.452 312.957 307.083 313.857C309.715 314.756 312.11 316.218 314.269 318.242C316.428 320.244 318.149 322.898 319.431 326.204C320.713 329.51 321.354 333.581 321.354 338.416V341.79H281.411V334.908H313.257C313.257 331.984 312.672 329.375 311.503 327.081C310.356 324.787 308.714 322.976 306.577 321.65C304.463 320.323 301.967 319.659 299.088 319.659C295.917 319.659 293.173 320.446 290.857 322.021C288.563 323.572 286.797 325.597 285.56 328.093C284.323 330.589 283.705 333.266 283.705 336.122V340.71C283.705 344.624 284.379 347.941 285.729 350.662C287.101 353.361 289.001 355.419 291.43 356.836C293.859 358.23 296.682 358.928 299.898 358.928C301.989 358.928 303.879 358.635 305.565 358.05C307.275 357.443 308.748 356.544 309.985 355.352C311.222 354.137 312.178 352.63 312.852 350.831L320.544 352.99C319.734 355.599 318.374 357.893 316.462 359.872C314.55 361.829 312.189 363.358 309.378 364.46C306.566 365.54 303.406 366.08 299.898 366.08ZM345.388 366.214C342.105 366.214 339.125 365.596 336.448 364.359C333.772 363.1 331.647 361.289 330.072 358.928C328.498 356.544 327.711 353.665 327.711 350.291C327.711 347.322 328.296 344.916 329.465 343.072C330.635 341.205 332.198 339.743 334.154 338.686C336.111 337.629 338.27 336.842 340.632 336.325C343.016 335.785 345.411 335.357 347.817 335.043C350.966 334.638 353.519 334.334 355.475 334.132C357.455 333.907 358.894 333.536 359.794 333.018C360.716 332.501 361.177 331.602 361.177 330.32V330.05C361.177 326.721 360.266 324.135 358.444 322.29C356.645 320.446 353.912 319.524 350.246 319.524C346.445 319.524 343.466 320.356 341.306 322.021C339.147 323.685 337.629 325.462 336.752 327.351L329.195 324.652C330.545 321.503 332.344 319.052 334.593 317.298C336.865 315.521 339.338 314.284 342.015 313.587C344.714 312.867 347.368 312.507 349.977 312.507C351.641 312.507 353.553 312.71 355.712 313.114C357.893 313.497 359.996 314.295 362.02 315.51C364.067 316.724 365.765 318.557 367.114 321.009C368.464 323.46 369.138 326.744 369.138 330.859V365H361.177V357.983H360.772C360.232 359.107 359.333 360.311 358.073 361.593C356.814 362.875 355.138 363.965 353.046 364.865C350.955 365.765 348.402 366.214 345.388 366.214ZM346.603 359.062C349.752 359.062 352.405 358.444 354.565 357.207C356.746 355.97 358.388 354.373 359.49 352.417C360.615 350.46 361.177 348.402 361.177 346.243V338.956C360.839 339.361 360.097 339.732 358.95 340.069C357.826 340.384 356.521 340.665 355.037 340.913C353.575 341.138 352.147 341.34 350.752 341.52C349.381 341.677 348.267 341.812 347.413 341.925C345.343 342.195 343.409 342.633 341.61 343.24C339.833 343.825 338.394 344.714 337.292 345.906C336.212 347.075 335.673 348.672 335.673 350.696C335.673 353.462 336.696 355.554 338.742 356.971C340.812 358.365 343.432 359.062 346.603 359.062ZM401.396 366.08C396.538 366.08 392.355 364.933 388.847 362.638C385.338 360.344 382.639 357.185 380.75 353.159C378.861 349.133 377.916 344.534 377.916 339.361C377.916 334.098 378.883 329.454 380.817 325.428C382.774 321.38 385.495 318.22 388.981 315.948C392.49 313.654 396.583 312.507 401.261 312.507C404.905 312.507 408.188 313.182 411.112 314.531C414.036 315.881 416.431 317.77 418.298 320.199C420.165 322.628 421.323 325.462 421.773 328.7H413.811C413.204 326.339 411.854 324.247 409.763 322.425C407.694 320.581 404.905 319.659 401.396 319.659C398.293 319.659 395.571 320.469 393.232 322.088C390.916 323.685 389.105 325.945 387.801 328.869C386.519 331.77 385.878 335.178 385.878 339.091C385.878 343.094 386.508 346.58 387.767 349.549C389.049 352.518 390.848 354.823 393.165 356.465C395.504 358.107 398.248 358.928 401.396 358.928C403.465 358.928 405.343 358.568 407.03 357.848C408.717 357.128 410.145 356.094 411.315 354.744C412.484 353.395 413.316 351.776 413.811 349.886H421.773C421.323 352.945 420.21 355.7 418.433 358.152C416.679 360.581 414.351 362.515 411.45 363.954C408.571 365.371 405.22 366.08 401.396 366.08ZM438.048 333.828V365H430.087V295.909H438.048V321.278H438.723C439.937 318.602 441.759 316.477 444.188 314.902C446.64 313.306 449.901 312.507 453.971 312.507C457.502 312.507 460.595 313.216 463.249 314.632C465.903 316.027 467.961 318.175 469.422 321.076C470.907 323.955 471.649 327.621 471.649 332.074V365H463.687V332.614C463.687 328.498 462.619 325.315 460.482 323.066C458.368 320.795 455.433 319.659 451.677 319.659C449.069 319.659 446.73 320.21 444.66 321.312C442.614 322.414 440.994 324.022 439.802 326.136C438.633 328.25 438.048 330.814 438.048 333.828Z" fill="white"/>
</g>
<defs>
<clipPath id="clip0_109_301">
<rect width="541" height="400" fill="white"/>
</clipPath>
</defs>
</svg>
