<svg width="1866" height="400" viewBox="0 0 1866 400" fill="none" xmlns="http://www.w3.org/2000/svg">
<rect width="400" height="400" rx="200" fill="#011829"/>
<g filter="url(#filter0_f_137_327)">
<circle cx="200" cy="200" r="80" fill="#A0D9FF"/>
</g>
<circle cx="200" cy="200" r="80" fill="#A0D9FF"/>
<path d="M200 360C242.435 360 283.131 343.143 313.137 313.137C343.143 283.131 360 242.435 360 200C360 157.565 343.143 116.869 313.137 86.8629C283.131 56.8571 242.435 40 200 40L200 103.95C225.474 103.95 249.905 114.069 267.918 132.082C285.931 150.095 296.051 174.526 296.05 200C296.05 225.474 285.931 249.905 267.918 267.918C249.905 285.931 225.474 296.051 200 296.05L200 360Z" fill="white"/>
<g clip-path="url(#clip0_137_327)">
<path d="M681.789 199.732C681.789 226.349 676.984 249.351 667.372 268.738C657.761 288.125 644.576 303.076 627.817 313.592C611.059 324.107 591.918 329.364 570.395 329.364C548.872 329.364 529.731 324.107 512.972 313.592C496.214 303.076 483.029 288.125 473.417 268.738C463.806 249.351 459 226.349 459 199.732C459 173.116 463.806 150.114 473.417 130.727C483.029 111.339 496.214 96.388 512.972 85.8728C529.731 75.3577 548.872 70.1001 570.395 70.1001C591.918 70.1001 611.059 75.3577 627.817 85.8728C644.576 96.388 657.761 111.339 667.372 130.727C676.984 150.114 681.789 173.116 681.789 199.732ZM652.216 199.732C652.216 177.88 648.56 159.438 641.249 144.404C634.019 129.371 624.203 117.993 611.798 110.271C599.476 102.549 585.674 98.6881 570.395 98.6881C555.115 98.6881 541.273 102.549 528.868 110.271C516.546 117.993 506.729 129.371 499.418 144.404C492.188 159.438 488.574 177.88 488.574 199.732C488.574 221.584 492.188 240.027 499.418 255.06C506.729 270.093 516.546 281.471 528.868 289.193C541.273 296.915 555.115 300.776 570.395 300.776C585.674 300.776 599.476 296.915 611.798 289.193C624.203 281.471 634.019 270.093 641.249 255.06C648.56 240.027 652.216 221.584 652.216 199.732ZM701.471 325.914V136.641H729.566V165.229H731.538C734.988 155.864 741.231 148.265 750.268 142.433C759.304 136.6 769.491 133.684 780.827 133.684C782.963 133.684 785.633 133.725 788.837 133.807C792.041 133.889 794.464 134.013 796.107 134.177V163.751C795.121 163.504 792.862 163.135 789.33 162.642C785.88 162.067 782.224 161.779 778.363 161.779C769.162 161.779 760.947 163.71 753.718 167.571C746.571 171.349 740.903 176.607 736.713 183.343C732.606 189.997 730.552 197.596 730.552 206.14V325.914H701.471ZM806.762 325.914V73.5504H835.843V166.708H838.308C840.444 163.422 843.401 159.232 847.18 154.139C851.041 148.964 856.545 144.363 863.692 140.338C870.921 136.231 880.697 134.177 893.02 134.177C908.957 134.177 923.004 138.161 935.162 146.13C947.32 154.098 956.809 165.394 963.627 180.016C970.446 194.639 973.855 211.89 973.855 231.771C973.855 251.815 970.446 269.19 963.627 283.894C956.809 298.517 947.362 309.854 935.286 317.904C923.21 325.873 909.285 329.857 893.512 329.857C881.354 329.857 871.62 327.845 864.308 323.819C856.997 319.712 851.37 315.07 847.427 309.895C843.483 304.637 840.444 300.283 838.308 296.833H834.858V325.914H806.762ZM835.351 231.278C835.351 245.572 837.445 258.182 841.635 269.108C845.825 279.951 851.945 288.454 859.995 294.615C868.046 300.694 877.904 303.734 889.569 303.734C901.727 303.734 911.873 300.53 920.006 294.122C928.221 287.632 934.382 278.924 938.489 267.999C942.679 256.99 944.774 244.75 944.774 231.278C944.774 217.969 942.72 205.976 938.613 195.296C934.587 184.534 928.467 176.032 920.252 169.789C912.119 163.463 901.892 160.3 889.569 160.3C877.74 160.3 867.8 163.299 859.749 169.296C851.698 175.211 845.619 183.508 841.512 194.187C837.404 204.784 835.351 217.148 835.351 231.278Z" fill="#011829"/>
<path d="M1017 325.464V73.1001H1102.27C1121.99 73.1001 1138.17 76.4681 1150.82 83.2051C1163.47 89.8591 1172.84 99.0191 1178.92 110.684C1185 122.349 1188.04 135.616 1188.04 150.485C1188.04 165.354 1185 178.539 1178.92 190.04C1172.84 201.541 1163.51 210.578 1150.95 217.15C1138.38 223.64 1122.32 226.884 1102.76 226.884H1033.76V199.282H1101.78C1115.25 199.282 1126.09 197.311 1134.31 193.367C1142.61 189.424 1148.6 183.838 1152.3 176.609C1156.08 169.298 1157.97 160.59 1157.97 150.485C1157.97 140.381 1156.08 131.55 1152.3 123.992C1148.52 116.434 1142.48 110.602 1134.19 106.494C1125.89 102.305 1114.92 100.21 1101.29 100.21H1047.56V325.464H1017ZM1135.79 212.098L1197.89 325.464H1162.41L1101.29 212.098H1135.79ZM1284.58 329.407C1266.34 329.407 1250.61 325.382 1237.38 317.331C1224.24 309.198 1214.09 297.862 1206.95 283.321C1199.88 268.699 1196.35 251.694 1196.35 232.306C1196.35 212.919 1199.88 195.832 1206.95 181.045C1214.09 166.176 1224.03 154.593 1236.77 146.296C1249.58 137.916 1264.53 133.727 1281.62 133.727C1291.48 133.727 1301.21 135.37 1310.83 138.656C1320.44 141.942 1329.19 147.281 1337.07 154.675C1344.96 161.986 1351.24 171.68 1355.93 183.756C1360.61 195.832 1362.95 210.701 1362.95 228.363V240.686H1217.05V215.548H1333.38C1333.38 204.868 1331.24 195.339 1326.97 186.96C1322.78 178.58 1316.78 171.967 1308.98 167.121C1301.25 162.274 1292.14 159.85 1281.62 159.85C1270.04 159.85 1260.02 162.726 1251.55 168.476C1243.17 174.144 1236.73 181.538 1232.21 190.656C1227.69 199.775 1225.43 209.551 1225.43 219.984V236.742C1225.43 251.036 1227.9 263.154 1232.82 273.094C1237.84 282.952 1244.78 290.468 1253.65 295.644C1262.52 300.737 1272.83 303.284 1284.58 303.284C1292.22 303.284 1299.12 302.216 1305.28 300.08C1311.52 297.862 1316.9 294.576 1321.42 290.222C1325.94 285.786 1329.43 280.282 1331.9 273.71L1359.99 281.596C1357.03 291.125 1352.06 299.505 1345.08 306.734C1338.1 313.881 1329.47 319.467 1319.2 323.492C1308.94 327.436 1297.39 329.407 1284.58 329.407ZM1435.12 329.9C1423.13 329.9 1412.25 327.641 1402.47 323.123C1392.69 318.522 1384.93 311.909 1379.18 303.284C1373.43 294.576 1370.55 284.061 1370.55 271.738C1370.55 260.894 1372.69 252.104 1376.96 245.368C1381.23 238.55 1386.94 233.21 1394.09 229.349C1401.24 225.488 1409.12 222.613 1417.75 220.723C1426.46 218.752 1435.21 217.191 1444 216.041C1455.5 214.562 1464.82 213.453 1471.97 212.714C1479.2 211.892 1484.45 210.537 1487.74 208.647C1491.11 206.758 1492.79 203.472 1492.79 198.789V197.803C1492.79 185.645 1489.47 176.198 1482.81 169.462C1476.24 162.726 1466.26 159.357 1452.87 159.357C1438.99 159.357 1428.1 162.397 1420.21 168.476C1412.33 174.555 1406.78 181.045 1403.58 187.946L1375.98 178.088C1380.91 166.587 1387.48 157.632 1395.69 151.225C1403.99 144.735 1413.03 140.217 1422.8 137.67C1432.66 135.041 1442.35 133.727 1451.88 133.727C1457.96 133.727 1464.94 134.466 1472.83 135.945C1480.8 137.341 1488.48 140.258 1495.87 144.694C1503.35 149.13 1509.55 155.825 1514.48 164.779C1519.41 173.734 1521.87 185.727 1521.87 200.761V325.464H1492.79V299.833H1491.31C1489.34 303.941 1486.06 308.336 1481.46 313.018C1476.86 317.701 1470.74 321.685 1463.1 324.971C1455.46 328.257 1446.13 329.9 1435.12 329.9ZM1439.56 303.776C1451.06 303.776 1460.75 301.517 1468.64 296.999C1476.61 292.481 1482.61 286.648 1486.63 279.501C1490.74 272.354 1492.79 264.838 1492.79 256.951V230.335C1491.56 231.813 1488.85 233.169 1484.66 234.401C1480.55 235.551 1475.79 236.578 1470.37 237.482C1465.03 238.303 1459.81 239.043 1454.72 239.7C1449.71 240.275 1445.64 240.768 1442.52 241.178C1434.96 242.164 1427.89 243.766 1421.32 245.984C1414.83 248.12 1409.58 251.365 1405.55 255.719C1401.61 259.991 1399.64 265.823 1399.64 273.217C1399.64 283.321 1403.37 290.961 1410.85 296.137C1418.41 301.23 1427.98 303.776 1439.56 303.776ZM1624.09 329.407C1606.34 329.407 1591.06 325.218 1578.25 316.838C1565.43 308.459 1555.57 296.917 1548.67 282.212C1541.77 267.507 1538.32 250.708 1538.32 231.813C1538.32 212.59 1541.85 195.627 1548.92 180.922C1556.07 166.135 1566.01 154.593 1578.74 146.296C1591.55 137.916 1606.5 133.727 1623.59 133.727C1636.9 133.727 1648.89 136.191 1659.57 141.12C1670.25 146.049 1679 152.95 1685.82 161.822C1692.64 170.694 1696.87 181.045 1698.51 192.875H1669.43C1667.21 184.249 1662.28 176.609 1654.64 169.955C1647.09 163.218 1636.9 159.85 1624.09 159.85C1612.75 159.85 1602.81 162.808 1594.26 168.723C1585.8 174.555 1579.19 182.811 1574.43 193.491C1569.74 204.088 1567.4 216.534 1567.4 230.828C1567.4 245.45 1569.7 258.183 1574.3 269.027C1578.98 279.871 1585.56 288.291 1594.02 294.288C1602.56 300.285 1612.58 303.284 1624.09 303.284C1631.64 303.284 1638.5 301.969 1644.66 299.34C1650.82 296.712 1656.04 292.933 1660.31 288.004C1664.58 283.075 1667.62 277.16 1669.43 270.259H1698.51C1696.87 281.432 1692.8 291.495 1686.31 300.449C1679.91 309.322 1671.4 316.386 1660.81 321.644C1650.29 326.819 1638.05 329.407 1624.09 329.407ZM1742.35 211.605V325.464H1713.27V73.1001H1742.35V165.765H1744.81C1749.25 155.989 1755.9 148.226 1764.77 142.476C1773.73 136.643 1785.64 133.727 1800.51 133.727C1813.41 133.727 1824.7 136.314 1834.39 141.49C1844.09 146.583 1851.61 154.428 1856.94 165.026C1862.37 175.541 1865.08 188.931 1865.08 205.197V325.464H1836V207.169C1836 192.135 1832.09 180.511 1824.29 172.296C1816.57 163.999 1805.85 159.85 1792.13 159.85C1782.6 159.85 1774.06 161.863 1766.5 165.888C1759.02 169.914 1753.11 175.787 1748.75 183.509C1744.48 191.232 1742.35 200.597 1742.35 211.605Z" fill="#011829"/>
</g>
<defs>
<filter id="filter0_f_137_327" x="95" y="95" width="210" height="210" filterUnits="userSpaceOnUse" color-interpolation-filters="sRGB">
<feFlood flood-opacity="0" result="BackgroundImageFix"/>
<feBlend mode="normal" in="SourceGraphic" in2="BackgroundImageFix" result="shape"/>
<feGaussianBlur stdDeviation="12.5" result="effect1_foregroundBlur_137_327"/>
</filter>
<clipPath id="clip0_137_327">
<rect width="1406.08" height="259.8" fill="white" transform="translate(459 70.1001)"/>
</clipPath>
</defs>
</svg>
